<?xml version="1.0" standalone="no"?>
<!DOCTYPE svg PUBLIC "-//W3C//DTD SVG 20010904//EN"
 "http://www.w3.org/TR/2001/REC-SVG-20010904/DTD/svg10.dtd">
<svg version="1.0" xmlns="http://www.w3.org/2000/svg"
 width="300.000000pt" height="300.000000pt" viewBox="0 0 300.000000 300.000000"
 preserveAspectRatio="xMidYMid meet">

<g transform="translate(0.000000,300.000000) scale(0.100000,-0.100000)"
fill="#000000" stroke="none">
<path d="M1412 2991 c-20 -12 -10 -46 14 -49 25 -4 40 24 23 44 -13 16 -19 17
-37 5z"/>
<path d="M1482 2991 c-23 -14 -10 -46 18 -46 16 0 26 6 28 19 3 16 -12 36 -28
36 -3 0 -11 -4 -18 -9z"/>
<path d="M1551 2986 c-17 -20 -2 -48 23 -44 24 3 34 37 14 49 -18 12 -24 11
-37 -5z"/>
<path d="M1326 2974 c-9 -22 17 -49 39 -40 10 3 15 15 13 28 -4 29 -42 37 -52
12z"/>
<path d="M1627 2983 c-13 -12 -7 -44 9 -50 20 -7 45 22 37 43 -5 14 -35 19
-46 7z"/>
<path d="M1253 2964 c-3 -8 2 -23 11 -32 15 -15 17 -15 32 0 21 21 11 48 -16
48 -11 0 -23 -7 -27 -16z"/>
<path d="M1697 2973 c-13 -12 -7 -41 10 -47 21 -8 48 17 40 38 -6 16 -38 22
-50 9z"/>
<path d="M1184 2955 c-9 -23 3 -45 25 -45 10 0 21 7 25 15 8 23 -4 45 -25 45
-11 0 -22 -7 -25 -15z"/>
<path d="M1767 2956 c-10 -26 4 -47 27 -44 15 2 21 10 21 28 0 29 -38 41 -48
16z"/>
<path d="M1117 2943 c-13 -12 -7 -41 10 -47 21 -9 46 16 37 37 -6 17 -35 23
-47 10z"/>
<path d="M1836 2934 c-4 -10 -1 -24 7 -31 19 -19 49 -5 45 21 -4 27 -43 34
-52 10z"/>
<path d="M1047 2923 c-12 -11 -7 -41 7 -46 21 -8 48 16 40 36 -6 17 -35 23
-47 10z"/>
<path d="M1906 2913 c-5 -11 -1 -22 9 -30 23 -16 47 -5 43 21 -4 27 -43 34
-52 9z"/>
<path d="M974 2895 c-8 -21 2 -45 19 -45 8 0 20 7 27 15 10 12 10 18 0 30 -7
8 -19 15 -27 15 -7 0 -16 -7 -19 -15z"/>
<path d="M1980 2895 c-11 -13 -11 -19 3 -32 21 -21 49 -9 45 19 -4 28 -30 35
-48 13z"/>
<path d="M903 2864 c-3 -8 2 -23 11 -32 15 -15 17 -15 32 0 21 21 11 48 -16
48 -11 0 -23 -7 -27 -16z"/>
<path d="M2043 2864 c-3 -8 2 -23 11 -32 15 -15 17 -15 32 0 21 21 11 48 -16
48 -11 0 -23 -7 -27 -16z"/>
<path d="M834 2835 c-4 -9 0 -23 8 -31 20 -20 50 -7 46 20 -4 26 -45 35 -54
11z"/>
<path d="M1410 2844 c-42 -8 -262 -54 -310 -65 -64 -15 -205 -79 -313 -143
-64 -37 -135 -93 -227 -179 -115 -106 -144 -140 -198 -226 -83 -135 -142 -275
-142 -340 0 -15 -6 -36 -14 -47 -8 -11 -24 -49 -36 -84 -24 -73 -28 -200 -10
-407 12 -153 20 -188 70 -313 59 -147 92 -208 166 -307 37 -48 81 -110 99
-138 53 -82 169 -180 316 -269 82 -49 108 -55 134 -30 23 23 65 11 65 -20 0
-26 32 -71 62 -87 11 -6 80 -15 152 -20 72 -5 156 -15 186 -24 74 -20 171 -19
261 4 41 10 117 28 171 40 102 23 148 51 148 91 0 33 38 41 66 13 30 -30 43
-29 90 7 21 16 91 66 154 112 134 96 202 162 250 244 19 32 55 85 81 118 71
88 97 144 119 252 11 55 34 142 52 194 l33 95 -2 200 c-2 219 2 201 -82 428
-67 181 -92 232 -150 292 -26 28 -60 75 -75 107 -34 73 -127 159 -237 223 -46
26 -118 71 -159 100 -100 70 -117 77 -352 129 -194 44 -314 60 -368 50z m371
-63 c224 -52 245 -60 337 -124 42 -30 111 -73 152 -97 41 -24 99 -62 128 -84
53 -40 132 -145 132 -173 0 -8 24 -40 54 -71 59 -63 95 -127 137 -247 15 -44
44 -125 63 -180 l36 -100 0 -188 c0 -184 -1 -189 -34 -300 -19 -61 -42 -150
-51 -197 -20 -101 -48 -158 -112 -237 -27 -32 -64 -84 -82 -115 -55 -91 -102
-139 -223 -225 -63 -45 -134 -98 -157 -117 -70 -58 -110 -43 -127 49 -8 48
-18 68 -56 117 -16 21 -27 42 -24 47 4 5 24 12 46 16 30 5 57 22 105 66 36 32
83 70 105 84 53 34 129 144 206 300 86 176 105 251 111 446 6 174 -12 327 -51
434 -25 69 -200 329 -253 375 -18 17 -53 39 -76 51 -23 12 -65 39 -93 60 -28
21 -85 55 -127 74 -73 34 -279 97 -358 110 -29 4 -40 12 -50 38 -13 30 -14 27
-19 -73 l-5 -105 -29 43 c-25 36 -33 42 -55 38 -14 -3 -46 -8 -70 -12 l-44 -6
87 -28 c47 -15 93 -31 102 -34 12 -4 4 -21 -39 -78 -75 -103 -75 -102 -9 -69
l61 31 3 52 3 53 59 -82 c33 -46 60 -82 62 -80 1 1 -4 31 -10 67 l-12 65 -52
19 -52 18 31 43 c22 30 29 49 24 64 -8 26 4 27 89 6 181 -46 328 -106 401
-165 22 -18 65 -45 95 -60 71 -36 98 -66 214 -233 86 -126 126 -200 113 -213
-2 -2 -62 31 -133 75 l-129 79 -3 66 c-3 72 -1 74 53 52 19 -8 35 -11 35 -7 0
5 -20 16 -45 25 -25 10 -45 22 -45 27 0 5 -10 9 -23 9 -13 0 -128 43 -257 95
-128 52 -235 93 -238 90 -5 -5 16 -15 255 -111 95 -38 173 -71 173 -74 0 -3
-43 -4 -95 -2 l-95 3 -120 74 c-66 41 -120 70 -120 65 0 -5 47 -37 105 -72 58
-35 105 -65 105 -68 0 -3 -19 -4 -42 -2 -31 3 -56 14 -88 41 -74 59 -80 64
-85 59 -3 -3 20 -25 50 -49 30 -24 55 -46 55 -49 0 -3 -18 -4 -40 -2 -29 3
-47 12 -65 34 -27 32 -34 26 -9 -10 15 -21 14 -22 -16 -22 -23 0 -33 6 -42 25
-6 14 -15 25 -20 25 -5 0 -4 -10 3 -21 9 -17 8 -23 -2 -30 -22 -14 -39 -10
-45 9 -3 9 -10 26 -15 37 -7 16 -8 14 -4 -10 3 -16 8 -37 10 -45 2 -8 -5 -26
-16 -39 -19 -23 -20 -23 -34 -5 -8 10 -12 26 -10 34 11 45 16 84 10 78 -4 -4
-10 -22 -14 -40 -8 -39 -27 -39 -24 0 l2 27 -11 -27 c-10 -23 -16 -26 -37 -21
-34 8 -36 10 -21 28 8 10 9 15 2 15 -6 0 -16 -9 -22 -20 -6 -12 -21 -20 -36
-20 l-25 0 27 35 c37 49 25 54 -14 6 -23 -29 -40 -40 -67 -43 -19 -2 -35 -2
-35 2 0 3 32 34 71 69 38 35 68 66 65 68 -3 3 -39 -26 -81 -65 -73 -67 -80
-70 -131 -74 -30 -1 -54 -1 -54 2 1 3 60 45 131 93 72 49 128 91 126 94 -3 2
-68 -39 -145 -91 l-140 -96 -126 0 -125 0 -3 -87 -3 -86 -115 -79 c-63 -44
-117 -84 -119 -90 -2 -6 46 23 107 65 61 42 116 77 122 77 6 0 10 -29 10 -74
l0 -74 -165 -152 c-91 -84 -164 -155 -161 -157 2 -3 73 57 156 134 83 76 155
140 160 141 6 2 10 -30 10 -77 l0 -81 -122 -138 c-67 -75 -133 -149 -146 -164
-14 -16 -21 -28 -16 -28 6 0 68 65 138 145 70 80 132 145 137 145 5 0 9 -47 9
-106 l0 -106 -110 -159 c-60 -88 -110 -162 -110 -165 0 -15 26 18 110 141 51
74 97 135 102 135 4 0 8 -29 8 -65 0 -61 -2 -65 -25 -71 -36 -9 -65 -50 -65
-92 0 -25 -8 -44 -26 -63 -19 -20 -28 -42 -32 -77 -4 -44 -2 -51 23 -70 19
-15 42 -22 70 -22 34 0 46 -5 59 -25 9 -13 16 -34 16 -45 0 -12 4 -29 9 -39
12 -22 3 -61 -13 -61 -24 0 -153 146 -203 230 -78 131 -92 164 -103 237 -5 37
-19 104 -31 148 -37 139 -24 379 27 502 9 21 33 61 54 90 21 29 48 80 60 113
13 36 45 86 79 127 l57 68 194 58 c315 93 362 108 357 113 -3 3 -119 -29 -258
-70 -139 -41 -255 -74 -256 -72 -6 6 140 113 182 134 30 15 73 22 175 28 l135
9 -110 5 -110 5 82 33 c97 40 214 72 265 72 20 0 40 5 44 11 9 16 -94 1 -196
-28 -128 -36 -331 -138 -424 -213 -110 -89 -196 -193 -229 -277 -15 -38 -45
-92 -67 -122 -49 -64 -75 -146 -91 -282 -14 -124 -8 -200 25 -339 14 -58 26
-118 26 -135 0 -72 138 -301 237 -395 125 -117 244 -208 275 -210 3 0 9 8 12
17 4 14 4 14 3 -2 -1 -11 2 -26 6 -33 5 -7 -3 -29 -21 -55 -17 -23 -35 -65
-42 -93 -11 -51 -40 -94 -62 -94 -6 0 -38 16 -72 37 -160 95 -277 193 -331
278 -18 28 -62 90 -99 138 -75 100 -98 142 -160 294 -57 142 -64 174 -78 396
-13 213 -6 291 37 381 14 29 25 61 25 72 0 70 110 304 199 422 55 74 273 262
366 317 127 75 292 145 368 155 34 5 98 18 142 29 123 32 255 24 476 -28z
m-943 -1093 c-2 -366 -6 -472 -15 -476 -10 -3 -13 96 -13 472 0 418 2 476 15
476 13 0 15 -57 13 -472z m42 2 c0 -411 -2 -470 -15 -470 -13 0 -15 59 -15
470 0 411 2 470 15 470 13 0 15 -59 15 -470z m50 5 c0 -407 -2 -465 -15 -465
-13 0 -15 58 -15 465 0 407 2 465 15 465 13 0 15 -58 15 -465z m40 0 c0 -407
-2 -465 -15 -465 -13 0 -15 58 -15 465 0 407 2 465 15 465 13 0 15 -58 15
-465z m494 434 c14 -17 26 -39 26 -49 0 -17 -3 -17 -25 5 -19 20 -33 25 -72
24 l-48 -2 49 -6 c37 -6 54 -14 72 -37 33 -41 30 -51 -7 -20 -26 22 -40 26
-95 26 -36 0 -64 -4 -64 -10 0 -6 30 -10 69 -10 65 0 71 -2 95 -31 36 -42 33
-56 -5 -25 -20 17 -42 26 -62 25 l-32 -1 33 -8 c37 -9 92 -56 92 -78 0 -10 -9
-6 -26 12 -24 23 -34 26 -88 24 l-61 -1 63 -6 c55 -5 67 -10 87 -35 14 -18 23
-41 22 -62 l-1 -32 -29 24 c-16 13 -36 24 -45 24 -14 -1 -13 -3 3 -12 33 -18
75 -61 75 -77 0 -10 -8 -7 -28 12 -21 20 -37 27 -63 25 l-34 -1 32 -4 c35 -5
93 -56 93 -82 -1 -13 -3 -12 -11 2 -15 26 -78 52 -92 38 -8 -8 -3 -11 17 -11
18 0 38 -11 57 -31 38 -41 37 -58 -2 -25 -30 25 -66 36 -54 16 3 -5 12 -10 20
-10 15 0 65 -56 65 -73 0 -6 -13 1 -28 16 l-28 27 -215 -2 -214 -3 210 -2 209
-3 33 -32 c18 -18 33 -38 33 -46 0 -10 -9 -6 -25 12 -13 14 -34 26 -47 26 -20
-1 -19 -3 9 -15 37 -16 57 -47 59 -92 l1 -32 -29 24 -30 25 -211 -2 -212 -2
212 -6 212 -5 30 -29 c17 -17 31 -36 31 -45 0 -10 -8 -7 -28 12 -18 18 -38 27
-58 26 -29 -1 -29 -1 6 -9 41 -10 75 -52 76 -97 l1 -32 -29 24 c-23 20 -40 25
-76 24 l-47 -2 49 -6 c37 -6 55 -15 77 -39 37 -42 38 -64 1 -29 -15 15 -37 27
-48 27 -15 0 -13 -3 9 -15 32 -16 66 -54 67 -72 0 -7 -11 -1 -25 12 -13 14
-30 25 -37 26 -7 0 -23 2 -35 3 -13 2 -23 -1 -23 -6 0 -4 14 -8 31 -8 22 0 40
-9 60 -31 38 -41 37 -58 -2 -25 -30 26 -79 35 -79 16 0 -5 13 -10 29 -10 20 0
37 -9 55 -31 35 -41 33 -60 -2 -26 -20 19 -38 27 -63 26 l-34 -1 33 -8 c37 -9
92 -56 92 -78 0 -10 -8 -6 -25 12 -13 14 -34 26 -47 26 -20 -1 -19 -3 9 -15
37 -16 57 -47 59 -92 l1 -32 -29 24 c-28 24 -37 25 -149 25 -121 0 -159 8
-159 35 0 8 -8 15 -19 15 -10 0 -24 6 -30 14 -10 12 -7 15 16 19 24 3 23 4 -8
6 -21 0 -43 9 -53 20 -18 19 -17 20 26 24 32 3 26 4 -24 5 l-68 2 0 470 0 470
224 0 224 0 26 -31z m546 -262 c0 -215 -3 -296 -12 -305 -7 -7 -44 -13 -82
-14 -71 -2 -71 -2 -13 -5 31 -2 57 -7 57 -11 0 -15 -24 -32 -45 -32 -16 0 -17
-2 -5 -10 33 -21 -12 -29 -177 -32 -166 -3 -172 -4 -197 -27 -33 -31 -34 -12
-2 25 17 20 36 30 72 35 l49 6 -46 2 c-33 1 -54 -5 -73 -20 -14 -11 -26 -16
-26 -10 0 18 60 70 88 74 26 4 26 4 -4 6 -22 1 -39 -7 -58 -25 -17 -18 -26
-22 -26 -12 0 8 13 26 28 41 26 25 35 27 110 27 48 0 82 4 82 10 0 6 -33 10
-79 10 -71 0 -83 -3 -110 -26 -38 -31 -41 -17 -5 25 18 21 36 31 57 33 l32 1
-34 4 c-24 3 -39 -1 -57 -18 -30 -28 -31 -13 -1 24 12 16 38 32 57 37 l35 8
-33 1 c-23 1 -41 -7 -57 -24 -14 -13 -25 -18 -25 -11 0 18 53 66 73 66 9 0 17
5 17 10 0 18 -28 11 -59 -16 -39 -32 -41 -11 -4 28 21 22 36 28 70 28 30 0 42
4 37 11 -10 17 -83 4 -109 -21 l-22 -21 1 33 c2 58 34 89 106 99 l45 6 -47 2
c-37 1 -53 -4 -77 -25 -19 -15 -31 -21 -31 -13 0 20 51 69 72 69 10 0 18 5 18
11 0 15 -41 1 -67 -24 -30 -27 -29 -5 1 30 l24 28 214 5 213 6 -211 2 c-200 2
-213 1 -238 -19 -36 -28 -33 -8 4 30 22 21 42 31 73 34 l42 4 -46 1 c-38 2
-51 -3 -73 -24 -17 -18 -26 -22 -26 -12 0 19 52 68 73 68 9 0 17 5 17 10 0 18
-28 11 -59 -16 -38 -31 -41 -17 -5 25 19 23 35 31 62 33 l37 1 -39 4 c-29 3
-44 -1 -62 -18 -34 -32 -33 -1 2 40 l26 31 224 0 224 0 0 -293z m48 6 c-2
-218 -6 -287 -15 -291 -10 -3 -13 59 -13 287 0 253 2 291 15 291 13 0 15 -36
13 -287z m42 -9 c0 -232 -3 -295 -12 -292 -10 4 -14 74 -16 296 -2 255 0 292
13 292 13 0 15 -38 15 -296z m50 -34 c0 -280 -2 -330 -14 -330 -12 0 -15 51
-16 330 0 290 1 330 15 330 13 0 15 -41 15 -330z m39 -6 c0 -251 -4 -334 -12
-331 -9 3 -13 93 -15 335 -2 292 0 332 13 332 13 0 15 -41 14 -336z m141 91
c67 -41 128 -75 135 -75 8 0 18 -21 24 -52 14 -67 30 -182 26 -186 -2 -2 -73
54 -159 125 l-156 128 0 67 c0 38 2 68 4 68 2 0 59 -34 126 -75z m38 -215
l152 -125 -1 -95 c0 -52 -4 -115 -7 -139 l-7 -44 -75 83 c-52 58 -71 85 -61
88 27 9 61 51 61 74 0 13 -9 46 -19 73 l-20 50 -7 -43 c-11 -66 -74 -101 -74
-41 0 21 -10 40 -30 61 -17 16 -30 35 -29 41 3 29 -3 37 -26 37 -24 0 -25 3
-25 56 0 31 4 54 8 52 5 -1 77 -59 160 -128z m-131 -20 c-5 -21 -3 -30 7 -30
28 0 50 -40 48 -86 -1 -24 0 -44 1 -44 19 0 90 46 94 61 8 28 20 23 28 -11 8
-37 -3 -56 -51 -92 -140 -101 -155 -105 -253 -57 -49 24 -72 30 -100 25 -49
-7 -85 -49 -77 -89 15 -76 67 -90 193 -53 120 35 145 34 191 -10 l37 -35 -35
5 c-19 2 -48 8 -63 12 -22 5 -40 -1 -89 -32 -46 -28 -76 -39 -115 -42 -90 -8
-130 37 -140 156 -4 58 -2 73 19 112 14 25 43 58 65 74 37 26 45 27 80 18 l38
-10 -32 -7 c-38 -9 -56 -27 -51 -52 2 -12 11 -17 23 -14 11 2 47 3 80 2 67 -1
71 1 101 44 25 36 19 69 -20 116 -29 35 -31 40 -14 57 23 23 41 14 35 -18z
m-9 -92 c17 -17 15 -29 -8 -58 l-20 -25 0 48 c0 48 7 56 28 35z m-128 -73 c0
-8 -7 -15 -15 -15 -8 0 -15 7 -15 15 0 8 7 15 15 15 8 0 15 -7 15 -15z m-44
-22 c-10 -10 -19 5 -10 18 6 11 8 11 12 0 2 -7 1 -15 -2 -18z m439 -240 c-3
-17 -13 -55 -21 -83 -15 -50 -16 -51 -35 -34 -10 9 -19 27 -19 39 0 30 -48 93
-109 145 -28 24 -51 48 -51 55 0 6 19 26 43 43 l42 32 78 -83 c70 -74 77 -85
72 -114z m-595 172 c0 -12 -15 -15 -67 -17 l-68 -1 65 -6 c51 -5 66 -10 68
-23 2 -12 -3 -18 -15 -19 -16 -1 -17 -2 0 -6 9 -2 17 -13 17 -24 0 -19 -6 -20
-70 -18 -39 1 -73 -1 -77 -4 -3 -4 30 -7 75 -7 66 0 82 -3 82 -15 0 -13 -25
-15 -169 -15 -168 0 -170 0 -200 -26 -39 -32 -41 -11 -4 28 25 26 32 28 110
28 46 0 83 3 83 8 0 4 -39 6 -87 4 -71 -3 -92 -7 -109 -23 l-21 -20 1 33 c2
67 35 91 136 99 l75 6 -77 1 c-69 2 -79 -1 -107 -24 -39 -32 -41 -11 -4 28
l27 28 168 0 c143 0 168 -2 168 -15z m160 -61 c0 -50 -3 -64 -15 -64 -12 0
-15 14 -15 70 0 58 3 68 15 64 11 -5 15 -22 15 -70z m-50 1 c0 -36 -3 -65 -8
-65 -13 0 -52 30 -52 41 0 5 8 10 18 10 16 1 16 2 0 6 -22 5 -24 43 -3 43 8 0
14 3 14 8 -3 16 2 22 16 22 12 0 15 -14 15 -65z m85 -5 c0 -34 -5 -55 -12 -57
-10 -4 -13 12 -13 57 0 45 3 61 13 58 7 -3 12 -24 12 -58z m53 -3 c-5 -48 -28
-46 -28 2 0 32 3 39 16 34 10 -4 14 -16 12 -36z m42 -2 c0 -16 -6 -25 -15 -25
-9 0 -15 9 -15 25 0 16 6 25 15 25 9 0 15 -9 15 -25z m60 10 c10 -12 7 -15
-15 -21 -30 -7 -40 -1 -32 21 8 19 31 19 47 0z m25 -109 c22 -16 23 -62 0
-105 -19 -37 -28 -34 -55 19 -25 48 -25 76 -2 89 23 14 35 13 57 -3z m-341
-21 c4 -13 -9 -15 -82 -17 l-87 -2 100 -6 c129 -9 145 -14 145 -51 0 -27 -2
-29 -27 -23 -16 4 -41 12 -58 19 -44 20 -129 35 -190 35 -55 0 -108 -16 -100
-31 3 -4 -2 -15 -12 -24 -13 -13 -14 -18 -3 -25 7 -4 10 -15 7 -24 -3 -8 -2
-18 3 -21 6 -4 10 -13 10 -21 0 -10 -12 -14 -39 -14 -24 0 -48 -8 -65 -21 -14
-11 -26 -17 -26 -12 1 15 35 51 65 66 25 14 27 16 9 17 -12 0 -33 -12 -48 -26
-15 -16 -26 -21 -26 -13 0 17 50 69 67 69 7 0 13 5 13 10 0 17 -17 11 -49 -16
-17 -14 -31 -21 -31 -16 0 20 43 62 73 71 30 9 30 9 6 10 -15 1 -38 -8 -53
-20 -32 -26 -34 -14 -2 26 22 28 30 30 108 36 l83 6 -83 1 c-76 2 -85 0 -107
-23 -34 -33 -32 -8 2 27 l27 28 182 0 c152 0 183 -2 188 -15z m450 -10 c30
-45 30 -78 1 -136 -65 -130 -109 -159 -241 -159 -138 0 -462 75 -486 113 -4 6
-8 36 -8 65 0 48 2 53 28 63 38 15 141 3 237 -27 90 -28 299 -50 339 -35 25
10 56 74 56 116 0 21 5 25 29 25 20 0 34 -8 45 -25z m-194 -45 c0 -47 -3 -60
-15 -60 -11 0 -15 13 -15 54 0 48 4 58 28 65 1 1 2 -26 2 -59z m-1117 -27 c29
-28 70 -62 93 -76 45 -28 74 -60 144 -163 41 -61 59 -77 110 -102 66 -34 161
-49 235 -37 34 5 54 15 77 41 48 53 88 44 108 -25 22 -77 -49 -172 -154 -205
-46 -15 -81 -18 -170 -14 -99 4 -119 8 -177 35 -108 50 -177 126 -249 274 -57
119 -122 161 -275 178 -48 6 -89 12 -90 13 -2 2 -1 25 2 51 7 58 15 63 125 80
121 19 159 11 221 -50z m1077 12 c0 -33 -4 -45 -15 -45 -11 0 -15 11 -15 38 0
21 3 42 7 45 16 16 23 4 23 -38z m-50 -11 c0 -45 -24 -42 -28 4 -2 24 1 32 12
32 12 0 16 -10 16 -36z m-40 1 c0 -16 -6 -25 -15 -25 -9 0 -15 9 -15 25 0 16
6 25 15 25 9 0 15 -9 15 -25z m160 -15 c9 -16 8 -20 -5 -20 -8 0 -15 9 -15 20
0 11 2 20 5 20 2 0 9 -9 15 -20z m176 -146 c-77 -151 -141 -241 -202 -283 -28
-20 -77 -60 -108 -89 -58 -52 -76 -57 -76 -22 0 10 -10 26 -21 34 -15 10 -30
45 -49 113 l-27 98 100 3 c56 1 106 1 112 -2 7 -2 22 -32 35 -67 13 -34 25
-58 27 -52 2 6 -5 34 -17 62 -25 64 -25 61 4 61 20 0 25 6 28 32 3 27 8 33 37
41 18 4 44 15 58 24 22 15 25 14 38 -3 16 -21 20 -8 6 15 -7 10 -4 23 8 40 10
15 31 50 46 80 24 48 28 52 42 38 13 -13 9 -26 -41 -123z m-941 45 c19 -17 35
-38 35 -46 0 -11 -7 -8 -26 11 -25 24 -32 26 -123 26 -91 0 -121 8 -121 32 0
4 45 8 100 8 97 0 100 -1 135 -31z m-739 -23 c-7 -39 10 -56 58 -56 23 0 26
-4 26 -35 0 -35 0 -35 -44 -35 -29 0 -52 7 -71 22 -24 18 -27 26 -22 60 5 39
30 78 50 78 5 0 6 -15 3 -34z m82 -3 c3 -32 2 -33 -32 -33 -33 0 -36 3 -36 28
0 36 8 44 40 40 20 -2 26 -9 28 -35z m40 -51 l3 -81 122 -4 122 -3 -137 -2
-138 -2 0 91 c0 68 3 90 13 87 8 -3 13 -32 15 -86z m42 13 l0 -65 89 0 c51 0
93 -4 96 -10 5 -7 -29 -10 -102 -8 l-108 3 -3 73 c-2 59 0 72 13 72 12 0 15
-13 15 -65z m48 2 l3 -46 62 -4 c61 -3 60 -3 -15 -5 l-78 -2 0 56 c0 70 23 71
28 1z m42 7 c0 -20 5 -24 30 -24 17 0 30 -5 30 -11 0 -6 -17 -9 -42 -7 -42 3
-43 4 -46 40 -3 31 0 37 12 32 9 -3 16 -17 16 -30z m491 4 c28 -32 38 -58 21
-58 -5 0 -17 9 -27 20 -15 17 -31 20 -93 20 -60 0 -78 4 -88 18 -7 9 -14 20
-14 25 0 4 39 7 86 7 83 0 86 -1 115 -32z m159 25 c0 -12 -33 -43 -45 -43 -7
0 -20 -9 -30 -20 -22 -24 -35 -26 -35 -4 0 25 56 74 84 74 14 0 26 -3 26 -7z
m97 -15 c17 -8 21 -17 16 -38 -3 -16 2 -41 12 -60 21 -41 10 -54 -39 -45 -93
18 -133 85 -81 137 26 27 46 28 92 6z m-712 -18 c3 -5 2 -10 -4 -10 -5 0 -13
5 -16 10 -3 6 -2 10 4 10 5 0 13 -4 16 -10z m772 -6 c-3 -3 -12 -4 -19 -1 -8
3 -5 6 6 6 11 1 17 -2 13 -5z m-338 -27 c17 -21 3 -27 -63 -25 l-61 1 65 7 65
7 -72 1 c-41 1 -73 6 -73 12 0 16 125 12 139 -3z m131 -7 c-12 -8 -12 -10 4
-10 11 0 17 -3 13 -6 -3 -4 -14 -4 -23 0 -13 5 -14 9 -4 21 7 9 15 13 19 10 3
-3 -1 -10 -9 -15z m305 10 c4 -6 -18 -10 -59 -10 -37 0 -66 4 -66 10 0 6 26
10 59 10 33 0 63 -4 66 -10z m77 -27 c-40 -2 -103 -2 -140 0 -37 2 -4 3 73 3
77 0 107 -2 67 -3z m-418 -19 c9 -8 16 -24 16 -35 0 -16 -7 -19 -50 -19 -43 0
-50 3 -50 19 0 25 26 51 50 51 10 0 26 -7 34 -16z m-99 -4 c4 -6 -13 -10 -44
-10 -28 0 -51 5 -51 10 0 6 20 10 44 10 25 0 48 -4 51 -10z m160 0 c3 -5 -3
-10 -15 -10 -12 0 -18 5 -15 10 3 6 10 10 15 10 5 0 12 -4 15 -10z m550 0 c-4
-6 -80 -10 -196 -10 -119 0 -189 4 -189 10 0 6 72 10 196 10 127 0 193 -3 189
-10z m45 -10 c0 -19 -6 -20 -207 -18 l-208 3 193 2 c161 3 192 6 192 18 0 8 7
15 15 15 8 0 15 -9 15 -20z m-772 -17 c-10 -2 -28 -2 -40 0 -13 2 -5 4 17 4
22 1 32 -1 23 -4z m195 0 c-7 -2 -21 -2 -30 0 -10 3 -4 5 12 5 17 0 24 -2 18
-5z m-63 -33 c30 6 64 13 75 15 11 3 40 -2 64 -9 l44 -13 -22 -22 c-22 -22
-29 -23 -130 -19 -85 3 -114 8 -148 26 -59 31 -54 44 9 25 44 -13 62 -13 108
-3z m374 -84 c34 -120 34 -122 -11 -131 -21 -4 -53 -13 -71 -21 -32 -13 -34
-16 -30 -56 l3 -43 -35 0 c-33 0 -35 2 -38 38 -3 34 2 43 46 85 74 70 86 125
46 218 -3 6 8 9 30 6 33 -4 34 -5 60 -96z m-959 63 c4 -19 15 -33 26 -36 11
-3 27 -19 35 -35 13 -24 20 -29 40 -24 27 7 45 -17 27 -35 -7 -7 -33 8 -79 45
l-68 55 -12 -27 c-7 -17 -8 -33 -2 -45 22 -42 -1 -35 -50 17 -39 41 -52 62
-52 85 l0 31 64 0 c64 0 64 0 71 -31z m80 4 c-9 -37 -16 -43 -42 -32 -16 6
-23 17 -23 34 0 22 4 25 36 25 34 0 36 -1 29 -27z m85 -40 c38 -61 41 -70 36
-117 -4 -35 -3 -45 3 -31 5 11 10 31 10 44 1 23 2 22 41 -13 23 -20 61 -46 86
-58 29 -15 43 -27 39 -36 -3 -7 -5 -28 -5 -45 0 -55 -6 -57 -103 -35 -81 19
-87 22 -80 42 13 41 9 70 -12 74 -11 3 -33 15 -51 28 -17 13 -36 24 -42 24 -6
0 -20 -21 -31 -46 l-21 -46 -39 23 c-21 13 -59 42 -83 64 -39 34 -44 43 -37
63 l9 24 27 -22 c16 -11 38 -40 51 -63 l23 -42 -4 68 c-3 39 -1 70 5 73 6 4
22 -5 36 -19 27 -28 28 -19 -5 -131 -3 -11 -1 -16 5 -12 5 3 15 28 22 56 7 27
14 50 16 50 3 0 16 -7 29 -16 34 -22 57 -11 53 23 -2 24 -8 28 -33 29 -27 0
-30 3 -28 31 4 40 20 83 32 83 5 0 28 -30 51 -67z m-36 -162 c10 -11 28 -21
40 -23 31 -4 26 -31 -9 -40 -34 -8 -60 -55 -50 -88 9 -28 -60 -150 -86 -150
-23 0 -23 0 -5 68 8 29 26 69 41 88 25 32 26 39 20 99 -7 60 -6 65 12 65 11 0
28 -9 37 -19z m892 -4 c3 -8 -9 -28 -25 -46 -34 -36 -35 -32 24 -115 19 -26
36 -61 37 -77 0 -16 1 -35 2 -41 2 -25 -31 -13 -62 23 -25 28 -32 48 -37 94
-6 69 -10 75 -37 75 -24 0 -58 27 -58 46 0 7 19 18 43 25 23 6 53 15 67 19 36
12 40 12 46 -3z m-529 -57 c32 -6 61 -10 66 -10 4 0 8 -21 9 -47 l2 -48 3 46
4 46 72 11 c40 7 82 15 95 18 20 6 22 3 22 -35 0 -30 -4 -41 -15 -41 -9 0 -42
-11 -75 -25 -62 -26 -137 -32 -234 -19 -55 8 -61 17 -51 80 5 38 9 44 25 39
10 -3 44 -10 77 -15z m-317 -30 c-6 -11 -16 -17 -25 -14 -27 11 -13 31 23 33
10 1 10 -4 2 -19z m705 1 c3 -5 1 -12 -5 -16 -5 -3 -10 1 -10 9 0 18 6 21 15
7z m67 -79 c5 -50 13 -70 37 -98 56 -63 34 -110 -61 -138 -226 -66 -377 -81
-510 -52 -35 8 -110 17 -168 21 -116 7 -161 23 -179 61 -18 40 -13 62 28 138
29 51 37 76 31 86 -6 8 -10 18 -10 23 0 14 61 7 173 -19 68 -16 156 -28 222
-31 102 -5 115 -3 174 21 42 17 84 26 120 26 31 1 67 7 81 15 43 25 54 16 62
-53z"/>
<path d="M1392 2738 l-18 -43 -25 36 c-15 22 -30 33 -42 31 -15 -3 -13 -10 18
-53 21 -30 35 -61 35 -79 0 -23 4 -30 20 -30 16 0 20 7 20 38 0 20 11 61 25
90 23 49 23 52 5 52 -13 0 -25 -14 -38 -42z"/>
<path d="M1151 2730 c-73 -22 -76 -24 -68 -44 5 -13 12 -14 32 -6 15 6 28 10
29 10 2 0 11 -29 21 -65 15 -58 30 -76 47 -59 4 3 -2 35 -12 70 l-19 65 30 6
c20 4 29 11 27 21 -4 22 -16 22 -87 2z"/>
<path d="M1755 2728 c-31 -18 -44 -40 -45 -76 0 -75 104 -114 149 -56 36 46
27 105 -20 129 -33 18 -57 18 -84 3z m79 -47 c22 -24 13 -58 -19 -73 -46 -21
-88 29 -58 71 18 26 55 27 77 2z"/>
<path d="M1551 2706 c-17 -20 -2 -48 23 -44 24 3 34 37 14 49 -18 12 -24 11
-37 -5z"/>
<path d="M993 2674 c-8 -4 0 -30 24 -82 41 -90 36 -84 56 -77 13 5 9 19 -21
86 -19 43 -38 79 -41 78 -3 0 -11 -3 -18 -5z"/>
<path d="M1947 2603 c-30 -59 -35 -78 -25 -84 21 -14 27 -11 34 16 7 29 15 30
53 10 16 -8 31 -11 35 -8 15 15 4 35 -24 44 -29 11 -39 32 -20 44 5 3 27 -3
49 -13 34 -17 41 -17 45 -5 3 8 6 17 6 19 0 4 -105 54 -113 54 -1 0 -20 -34
-40 -77z"/>
<path d="M871 2610 c-45 -21 -65 -54 -49 -83 14 -27 35 -31 79 -17 21 7 42 10
46 6 12 -12 -26 -40 -54 -41 -21 0 -28 -5 -28 -20 0 -45 93 -13 117 40 10 22
9 29 -10 47 -19 19 -25 20 -60 10 -59 -18 -70 -14 -40 12 17 16 35 22 48 19
15 -4 20 -1 20 15 0 29 -21 33 -69 12z"/>
<path d="M662 2463 l-42 -38 53 -66 c43 -53 56 -64 69 -55 14 9 14 12 -4 37
-11 15 -18 31 -15 36 4 6 32 8 63 5 44 -4 56 -2 52 8 -2 8 -17 18 -34 24 -24
9 -29 16 -29 46 0 33 -2 35 -36 38 -29 2 -43 -4 -77 -35z m60 -35 c-27 -27
-52 -31 -52 -8 0 12 63 49 73 43 5 -3 -4 -19 -21 -35z"/>
<path d="M2153 2484 c-4 -11 1 -22 12 -31 16 -11 21 -11 33 1 8 8 12 22 9 30
-8 21 -46 21 -54 0z"/>
<path d="M1615 2448 c-73 -25 -76 -27 -40 -27 22 1 49 4 60 7 24 8 71 40 64
45 -2 1 -40 -10 -84 -25z"/>
<path d="M2285 2394 c-55 -59 -9 -151 71 -142 l29 3 -42 28 c-51 32 -58 67
-19 92 30 20 63 7 72 -30 3 -13 12 -29 20 -36 12 -9 14 -5 14 29 0 32 -6 45
-26 61 -38 30 -89 28 -119 -5z"/>
<path d="M1727 2391 c17 -5 80 -11 140 -14 61 -3 94 -2 76 2 -17 5 -80 11
-140 14 -61 3 -94 2 -76 -2z"/>
<path d="M520 2320 c-23 -28 -41 -52 -39 -53 2 -1 33 -27 67 -56 l64 -54 39
44 c21 24 38 49 39 56 1 28 -24 23 -52 -12 -21 -25 -34 -33 -41 -26 -7 7 -4
19 7 37 26 38 5 56 -28 25 -39 -37 -51 -15 -16 29 25 31 27 40 16 49 -11 9
-22 1 -56 -39z"/>
<path d="M2519 2240 c-8 -4 -46 -16 -86 -26 -63 -16 -70 -20 -62 -36 7 -14 14
-15 34 -8 21 8 27 5 46 -21 20 -29 20 -31 4 -49 -14 -16 -15 -23 -6 -34 11
-13 20 -5 60 47 26 34 51 68 55 75 11 18 -26 62 -45 52z m-7 -62 c-19 -19 -24
-21 -32 -8 -10 17 4 30 35 30 19 0 18 -1 -3 -22z"/>
<path d="M426 2195 c-4 -10 9 -36 34 -70 22 -30 40 -57 40 -60 0 -4 -33 -4
-74 0 -60 6 -74 4 -79 -8 -7 -18 37 -27 129 -27 43 0 63 4 67 13 5 13 -64 122
-97 155 -11 11 -14 11 -20 -3z"/>
<path d="M2565 2037 c-38 -17 -72 -32 -74 -34 -5 -4 38 -113 49 -126 4 -4 14
-5 23 -1 15 5 15 9 -3 45 -11 21 -20 44 -20 52 0 7 26 24 58 37 69 28 64 24
56 44 -8 20 -5 21 -89 -17z"/>
<path d="M313 1975 c-7 -20 -13 -16 79 -52 66 -27 77 -29 83 -16 7 20 11 18
-75 53 -85 35 -79 34 -87 15z"/>
<path d="M273 1862 c-7 -18 11 -29 59 -37 21 -4 38 -10 38 -15 0 -4 -27 -17
-59 -29 -52 -19 -81 -44 -67 -59 3 -2 40 -12 83 -22 56 -14 80 -15 85 -7 11
17 1 26 -40 33 -20 4 -44 10 -52 15 -12 6 -12 9 5 15 85 31 109 43 115 60 7
17 -2 21 -77 40 -72 17 -86 18 -90 6z"/>
<path d="M2635 1851 c-66 -21 -80 -29 -77 -44 2 -10 10 -16 17 -14 7 3 45 15
84 27 39 11 71 24 71 28 -1 26 -20 27 -95 3z"/>
<path d="M2642 1738 c-51 -8 -62 -13 -60 -26 3 -12 12 -16 34 -14 30 3 32 1
38 -38 8 -53 31 -48 32 6 0 32 4 39 20 39 15 0 20 -8 22 -42 3 -36 7 -43 24
-43 19 0 20 4 13 58 -4 31 -9 60 -12 65 -5 9 -28 8 -111 -5z"/>
<path d="M230 1621 c0 -18 6 -21 46 -21 58 0 84 -14 84 -45 0 -34 -33 -49 -92
-42 -43 5 -48 4 -48 -13 0 -18 7 -20 65 -20 57 0 69 3 90 25 31 30 32 66 2
100 -18 22 -34 27 -85 32 -58 5 -62 5 -62 -16z"/>
<path d="M2626 1529 c-14 -17 -26 -41 -26 -54 0 -39 46 -85 85 -85 50 0 89 37
89 85 0 79 -97 115 -148 54z m92 -15 c30 -21 29 -59 -3 -80 -23 -15 -27 -15
-50 0 -32 21 -33 59 -3 80 12 9 25 16 28 16 3 0 16 -7 28 -16z"/>
<path d="M294 1355 c-4 -9 -2 -21 4 -27 16 -16 47 -5 47 17 0 26 -42 34 -51
10z"/>
<path d="M2592 1316 c2 -12 13 -23 27 -26 36 -8 37 -28 1 -47 -58 -33 -66 -41
-54 -53 9 -9 19 -8 42 4 29 15 30 15 36 -9 7 -28 37 -40 65 -25 18 9 51 91 51
125 0 6 -38 20 -85 31 -86 20 -86 20 -83 0z m123 -68 c-4 -13 -9 -31 -11 -40
-9 -30 -24 -20 -24 15 0 37 6 47 27 47 10 0 12 -7 8 -22z"/>
<path d="M411 1211 c-11 -7 -11 -15 -2 -41 15 -44 14 -60 -3 -60 -8 0 -17 14
-21 30 -7 32 -12 35 -33 22 -10 -7 -10 -15 -2 -37 6 -15 8 -30 6 -33 -12 -11
-35 9 -41 38 -6 29 -29 49 -41 37 -4 -4 23 -116 31 -125 5 -6 165 49 165 57 0
12 -32 105 -39 113 -3 4 -12 3 -20 -1z"/>
<path d="M2526 1095 c-4 -12 6 -21 44 -37 28 -11 50 -24 50 -28 0 -5 -27 -11
-60 -15 -56 -7 -90 -24 -90 -46 0 -5 4 -9 10 -9 5 0 41 -15 79 -33 56 -27 71
-31 76 -19 8 21 -1 29 -50 47 -24 10 -42 21 -40 25 3 4 31 11 62 15 103 12
109 38 20 77 -91 40 -94 41 -101 23z"/>
<path d="M425 989 c-84 -49 -77 -43 -69 -63 6 -15 9 -15 30 -1 13 8 28 15 34
15 16 0 48 -72 34 -77 -27 -9 -45 -30 -39 -45 5 -13 19 -9 86 29 63 36 77 48
68 59 -9 11 -16 11 -40 -2 -28 -14 -29 -14 -49 18 -26 42 -26 43 10 60 25 12
28 17 17 31 -11 15 -19 13 -82 -24z"/>
<path d="M2423 901 c-9 -13 2 -24 65 -64 58 -37 77 -46 83 -35 5 7 9 15 8 18
0 3 -33 26 -73 51 -64 41 -74 44 -83 30z"/>
<path d="M2370 825 c-11 -13 -10 -19 6 -36 17 -19 17 -20 -9 -46 -22 -23 -30
-25 -50 -16 -19 9 -25 8 -34 -5 -8 -14 3 -21 75 -50 l84 -34 20 20 21 20 -38
64 c-63 104 -60 101 -75 83z m67 -142 c-2 -2 -17 1 -32 7 -23 9 -25 13 -14 26
12 14 15 14 31 -6 10 -13 17 -25 15 -27z"/>
<path d="M585 764 l-50 -45 -21 26 c-18 23 -22 24 -33 11 -11 -13 -5 -25 39
-76 42 -49 55 -58 67 -49 11 10 10 16 -9 36 -20 22 -21 26 -7 36 8 7 33 27 54
44 35 29 38 35 25 47 -13 12 -22 9 -65 -30z"/>
<path d="M763 583 c-7 -2 -13 -16 -13 -29 0 -19 5 -24 24 -24 30 0 40 24 20
45 -9 8 -16 15 -17 14 -1 0 -8 -3 -14 -6z"/>
<path d="M2206 574 c-20 -20 -9 -44 20 -44 19 0 24 5 24 24 0 29 -24 40 -44
20z"/>
<path d="M1028 2103 c6 -2 18 -2 25 0 6 3 1 5 -13 5 -14 0 -19 -2 -12 -5z"/>
<path d="M1113 2103 c9 -2 25 -2 35 0 9 3 1 5 -18 5 -19 0 -27 -2 -17 -5z"/>
<path d="M1198 2103 c12 -2 30 -2 40 0 9 3 -1 5 -23 4 -22 0 -30 -2 -17 -4z"/>
<path d="M1288 2103 c12 -2 30 -2 40 0 9 3 -1 5 -23 4 -22 0 -30 -2 -17 -4z"/>
<path d="M1020 1990 l0 -80 75 0 75 0 0 80 0 80 -75 0 -75 0 0 -80z m140 0 l0
-60 -65 0 -65 0 0 60 0 60 65 0 65 0 0 -60z"/>
<path d="M1066 1992 c-14 -29 -22 -52 -17 -52 5 0 13 9 16 20 8 26 41 26 55
-1 24 -43 20 -9 -3 37 l-25 48 -26 -52z m34 8 c0 -5 -5 -10 -11 -10 -5 0 -7 5
-4 10 3 6 8 10 11 10 2 0 4 -4 4 -10z"/>
<path d="M1200 2060 c0 -5 18 -10 40 -10 22 0 40 5 40 10 0 6 -18 10 -40 10
-22 0 -40 -4 -40 -10z"/>
<path d="M1198 2013 c6 -2 18 -2 25 0 6 3 1 5 -13 5 -14 0 -19 -2 -12 -5z"/>
<path d="M1268 2013 c12 -2 30 -2 40 0 9 3 -1 5 -23 4 -22 0 -30 -2 -17 -4z"/>
<path d="M1213 1963 c15 -2 37 -2 50 0 12 2 0 4 -28 4 -27 0 -38 -2 -22 -4z"/>
<path d="M1200 1921 c0 -7 40 -11 117 -11 106 0 119 -2 140 -22 13 -12 23 -17
23 -11 0 5 -9 18 -21 29 -18 16 -40 20 -140 22 -81 3 -119 0 -119 -7z"/>
<path d="M1023 1873 c9 -2 23 -2 30 0 6 3 -1 5 -18 5 -16 0 -22 -2 -12 -5z"/>
<path d="M1113 1873 c9 -2 25 -2 35 0 9 3 1 5 -18 5 -19 0 -27 -2 -17 -5z"/>
<path d="M1193 1873 c9 -2 23 -2 30 0 6 3 -1 5 -18 5 -16 0 -22 -2 -12 -5z"/>
<path d="M1303 1873 c15 -2 39 -2 55 0 15 2 2 4 -28 4 -30 0 -43 -2 -27 -4z"/>
<path d="M1028 1823 c12 -2 32 -2 45 0 12 2 2 4 -23 4 -25 0 -35 -2 -22 -4z"/>
<path d="M1153 1823 c31 -2 83 -2 115 0 31 2 5 3 -58 3 -63 0 -89 -1 -57 -3z"/>
<path d="M1020 1780 c0 -5 11 -10 25 -10 14 0 25 5 25 10 0 6 -11 10 -25 10
-14 0 -25 -4 -25 -10z"/>
<path d="M1090 1780 c0 -5 9 -10 20 -10 11 0 20 5 20 10 0 6 -9 10 -20 10 -11
0 -20 -4 -20 -10z"/>
<path d="M1180 1780 c0 -5 23 -10 51 -10 31 0 48 4 44 10 -3 6 -26 10 -51 10
-24 0 -44 -4 -44 -10z"/>
<path d="M1295 1780 c-4 -6 8 -10 29 -10 20 0 36 5 36 10 0 6 -13 10 -29 10
-17 0 -33 -4 -36 -10z"/>
<path d="M1020 1730 c0 -5 5 -10 10 -10 6 0 10 5 10 10 0 6 -4 10 -10 10 -5 0
-10 -4 -10 -10z"/>
<path d="M1060 1730 c0 -5 9 -10 20 -10 11 0 20 5 20 10 0 6 -9 10 -20 10 -11
0 -20 -4 -20 -10z"/>
<path d="M1150 1729 c0 -5 5 -7 10 -4 6 3 10 8 10 11 0 2 -4 4 -10 4 -5 0 -10
-5 -10 -11z"/>
<path d="M1185 1730 c3 -5 12 -10 20 -10 8 0 17 5 20 10 4 6 -5 10 -20 10 -15
0 -24 -4 -20 -10z"/>
<path d="M1305 1730 c3 -5 15 -10 25 -10 10 0 22 5 25 10 4 6 -7 10 -25 10
-18 0 -29 -4 -25 -10z"/>
<path d="M1033 1633 c15 -2 37 -2 50 0 12 2 0 4 -28 4 -27 0 -38 -2 -22 -4z"/>
<path d="M1178 1633 c18 -2 45 -2 60 0 15 2 0 4 -33 4 -33 0 -45 -2 -27 -4z"/>
<path d="M1328 1633 c12 -2 30 -2 40 0 9 3 -1 5 -23 4 -22 0 -30 -2 -17 -4z"/>
<path d="M1020 1590 c0 -5 5 -10 10 -10 6 0 10 5 10 10 0 6 -4 10 -10 10 -5 0
-10 -4 -10 -10z"/>
<path d="M1090 1590 c0 -5 23 -10 50 -10 28 0 50 5 50 10 0 6 -22 10 -50 10
-27 0 -50 -4 -50 -10z"/>
<path d="M1240 1590 c0 -5 18 -10 40 -10 22 0 40 5 40 10 0 6 -18 10 -40 10
-22 0 -40 -4 -40 -10z"/>
<path d="M1370 1590 c0 -5 14 -10 32 -10 19 0 41 -9 55 -22 13 -12 23 -17 23
-10 0 19 -52 52 -81 52 -16 0 -29 -4 -29 -10z"/>
<path d="M1028 1493 c12 -2 32 -2 45 0 12 2 2 4 -23 4 -25 0 -35 -2 -22 -4z"/>
<path d="M1127 1493 c18 -2 50 -2 70 0 21 2 7 4 -32 4 -38 0 -55 -2 -38 -4z"/>
<path d="M1278 1493 c18 -2 45 -2 60 0 15 2 0 4 -33 4 -33 0 -45 -2 -27 -4z"/>
<path d="M1020 1450 c0 -6 32 -10 75 -10 43 0 75 4 75 10 0 6 -32 10 -75 10
-43 0 -75 -4 -75 -10z"/>
<path d="M1220 1450 c0 -6 42 -10 107 -10 96 0 109 -2 130 -22 13 -12 23 -16
23 -10 0 7 -15 21 -32 32 -27 16 -51 20 -130 20 -59 0 -98 -4 -98 -10z"/>
<path d="M1048 1403 c23 -2 59 -2 80 0 20 2 1 4 -43 4 -44 0 -61 -2 -37 -4z"/>
<path d="M1208 1403 c18 -2 45 -2 60 0 15 2 0 4 -33 4 -33 0 -45 -2 -27 -4z"/>
<path d="M1028 1353 c12 -2 32 -2 45 0 12 2 2 4 -23 4 -25 0 -35 -2 -22 -4z"/>
<path d="M1193 1353 c37 -2 96 -2 130 0 34 2 4 3 -68 3 -71 0 -99 -1 -62 -3z"/>
<path d="M1020 1310 c0 -5 5 -10 10 -10 6 0 10 5 10 10 0 6 -4 10 -10 10 -5 0
-10 -4 -10 -10z"/>
<path d="M1060 1308 c0 -5 17 -8 37 -8 20 0 33 3 30 7 -10 9 -67 10 -67 1z"/>
<path d="M1150 1309 c0 -5 10 -9 22 -9 12 0 18 3 14 7 -10 11 -36 12 -36 2z"/>
<path d="M1240 1308 c0 -5 26 -8 57 -8 31 0 54 3 50 6 -9 9 -107 10 -107 2z"/>
<path d="M1020 1260 c0 -5 6 -10 14 -10 8 0 18 5 21 10 3 6 -3 10 -14 10 -12
0 -21 -4 -21 -10z"/>
<path d="M1105 1260 c3 -5 28 -10 55 -10 27 0 52 5 55 10 4 6 -17 10 -55 10
-38 0 -59 -4 -55 -10z"/>
<path d="M1270 1260 c0 -5 14 -10 30 -10 17 0 30 5 30 10 0 6 -13 10 -30 10
-16 0 -30 -4 -30 -10z"/>
<path d="M1148 1213 c12 -2 30 -2 40 0 9 3 -1 5 -23 4 -22 0 -30 -2 -17 -4z"/>
<path d="M1273 1213 c15 -2 39 -2 55 0 15 2 2 4 -28 4 -30 0 -43 -2 -27 -4z"/>
<path d="M1208 1163 c12 -2 30 -2 40 0 9 3 -1 5 -23 4 -22 0 -30 -2 -17 -4z"/>
<path d="M1303 1163 c15 -2 39 -2 55 0 15 2 2 4 -28 4 -30 0 -43 -2 -27 -4z"/>
<path d="M1410 1120 c0 -6 5 -10 12 -10 6 0 22 -10 35 -22 13 -12 23 -17 23
-11 0 12 -29 38 -52 46 -10 4 -18 2 -18 -3z"/>
<path d="M1728 2103 c6 -2 18 -2 25 0 6 3 1 5 -13 5 -14 0 -19 -2 -12 -5z"/>
<path d="M1833 2103 c15 -2 39 -2 55 0 15 2 2 4 -28 4 -30 0 -43 -2 -27 -4z"/>
<path d="M1943 2103 c9 -2 23 -2 30 0 6 3 -1 5 -18 5 -16 0 -22 -2 -12 -5z"/>
<path d="M1620 2060 c0 -6 38 -10 95 -10 57 0 95 4 95 10 0 6 -38 10 -95 10
-57 0 -95 -4 -95 -10z"/>
<path d="M1860 2060 c0 -6 27 -10 60 -10 33 0 60 4 60 10 0 6 -27 10 -60 10
-33 0 -60 -4 -60 -10z"/>
<path d="M1673 2013 c9 -2 23 -2 30 0 6 3 -1 5 -18 5 -16 0 -22 -2 -12 -5z"/>
<path d="M1773 2013 c15 -2 39 -2 55 0 15 2 2 4 -28 4 -30 0 -43 -2 -27 -4z"/>
<path d="M1883 2013 c9 -2 25 -2 35 0 9 3 1 5 -18 5 -19 0 -27 -2 -17 -5z"/>
<path d="M1948 2013 c6 -2 18 -2 25 0 6 3 1 5 -13 5 -14 0 -19 -2 -12 -5z"/>
<path d="M1620 1920 c0 -6 28 -10 65 -10 37 0 65 4 65 10 0 6 -28 10 -65 10
-37 0 -65 -4 -65 -10z"/>
<path d="M1770 1920 c0 -5 16 -10 36 -10 21 0 33 4 29 10 -3 6 -19 10 -36 10
-16 0 -29 -4 -29 -10z"/>
<path d="M1860 1920 c0 -6 27 -10 60 -10 33 0 60 4 60 10 0 6 -27 10 -60 10
-33 0 -60 -4 -60 -10z"/>
<path d="M1703 1873 c15 -2 39 -2 55 0 15 2 2 4 -28 4 -30 0 -43 -2 -27 -4z"/>
<path d="M1823 1873 c15 -2 39 -2 55 0 15 2 2 4 -28 4 -30 0 -43 -2 -27 -4z"/>
<path d="M1948 1873 c6 -2 18 -2 25 0 6 3 1 5 -13 5 -14 0 -19 -2 -12 -5z"/>
<path d="M1542 1814 c-12 -8 -22 -20 -22 -26 0 -6 8 -4 18 5 9 9 29 20 42 26
22 8 22 10 5 10 -11 1 -31 -6 -43 -15z"/>
<path d="M1668 1823 c12 -2 30 -2 40 0 9 3 -1 5 -23 4 -22 0 -30 -2 -17 -4z"/>
<path d="M1748 1823 c6 -2 18 -2 25 0 6 3 1 5 -13 5 -14 0 -19 -2 -12 -5z"/>
<path d="M1848 1823 c18 -2 45 -2 60 0 15 2 0 4 -33 4 -33 0 -45 -2 -27 -4z"/>
<path d="M1948 1823 c6 -2 18 -2 25 0 6 3 1 5 -13 5 -14 0 -19 -2 -12 -5z"/>
<path d="M1695 1780 c-4 -6 12 -10 40 -10 28 0 44 4 40 10 -3 6 -21 10 -40 10
-19 0 -37 -4 -40 -10z"/>
<path d="M1800 1780 c0 -5 11 -10 25 -10 14 0 25 5 25 10 0 6 -11 10 -25 10
-14 0 -25 -4 -25 -10z"/>
<path d="M1900 1780 c0 -5 18 -10 40 -10 22 0 40 5 40 10 0 6 -18 10 -40 10
-22 0 -40 -4 -40 -10z"/>
<path d="M1620 1730 c0 -6 26 -10 59 -10 33 0 63 5 66 10 4 6 -18 10 -59 10
-37 0 -66 -4 -66 -10z"/>
<path d="M1770 1730 c0 -5 13 -10 29 -10 17 0 33 5 36 10 4 6 -8 10 -29 10
-20 0 -36 -4 -36 -10z"/>
<path d="M1855 1730 c3 -5 33 -10 66 -10 33 0 59 4 59 10 0 6 -29 10 -66 10
-41 0 -63 -4 -59 -10z"/>
<path d="M1643 1683 c9 -2 23 -2 30 0 6 3 -1 5 -18 5 -16 0 -22 -2 -12 -5z"/>
<path d="M1758 1683 c6 -2 18 -2 25 0 6 3 1 5 -13 5 -14 0 -19 -2 -12 -5z"/>
<path d="M1878 1683 c6 -2 18 -2 25 0 6 3 1 5 -13 5 -14 0 -19 -2 -12 -5z"/>
<path d="M1648 1633 c12 -2 30 -2 40 0 9 3 -1 5 -23 4 -22 0 -30 -2 -17 -4z"/>
<path d="M1728 1633 c6 -2 18 -2 25 0 6 3 1 5 -13 5 -14 0 -19 -2 -12 -5z"/>
<path d="M1833 1633 c15 -2 37 -2 50 0 12 2 0 4 -28 4 -27 0 -38 -2 -22 -4z"/>
<path d="M1928 1633 c12 -2 30 -2 40 0 9 3 -1 5 -23 4 -22 0 -30 -2 -17 -4z"/>
<path d="M1750 1590 c0 -6 45 -10 115 -10 70 0 115 4 115 10 0 6 -45 10 -115
10 -70 0 -115 -4 -115 -10z"/>
<path d="M1673 1543 c26 -2 68 -2 95 0 26 2 4 3 -48 3 -52 0 -74 -1 -47 -3z"/>
<path d="M1678 1493 c12 -2 30 -2 40 0 9 3 -1 5 -23 4 -22 0 -30 -2 -17 -4z"/>
<path d="M1803 1493 c15 -2 39 -2 55 0 15 2 2 4 -28 4 -30 0 -43 -2 -27 -4z"/>
<path d="M1542 1344 c-12 -8 -22 -20 -22 -26 0 -6 9 -3 20 7 11 10 37 21 58
25 l37 8 -35 1 c-20 0 -46 -6 -58 -15z"/>
<path d="M1658 1353 c7 -3 16 -2 19 1 4 3 -2 6 -13 5 -11 0 -14 -3 -6 -6z"/>
<path d="M1713 1353 c15 -2 37 -2 50 0 12 2 0 4 -28 4 -27 0 -38 -2 -22 -4z"/>
<path d="M1803 1353 c9 -2 25 -2 35 0 9 3 1 5 -18 5 -19 0 -27 -2 -17 -5z"/>
<path d="M1828 1068 c-3 -24 0 -46 6 -50 16 -11 66 -10 66 1 0 5 -12 11 -27
13 -26 3 -28 6 -25 41 2 20 -1 37 -6 37 -6 0 -12 -19 -14 -42z"/>
<path d="M1932 1053 c-10 -46 -9 -63 4 -50 11 11 22 87 14 92 -5 3 -13 -16
-18 -42z"/>
<path d="M1986 1058 c-31 -43 -17 -75 38 -88 35 -8 36 -7 36 22 0 27 -2 30
-25 24 -18 -5 -25 -2 -25 9 0 8 8 15 19 15 27 0 46 26 25 34 -30 11 -53 6 -68
-16z"/>
<path d="M2200 1060 c0 -5 7 -10 15 -10 10 0 15 -10 15 -27 0 -16 5 -35 10
-43 11 -17 13 -10 10 38 -1 23 3 32 14 32 9 0 16 5 16 10 0 6 -18 10 -40 10
-22 0 -40 -4 -40 -10z"/>
<path d="M2090 1015 c0 -46 14 -61 23 -25 3 12 14 20 26 20 14 0 21 -6 21 -20
0 -11 5 -20 10 -20 6 0 10 20 10 45 0 46 -14 61 -23 25 -3 -11 -13 -20 -22
-20 -9 0 -19 9 -22 20 -9 36 -23 21 -23 -25z"/>
<path d="M927 1134 l-16 -45 32 -14 c40 -17 59 -7 23 12 -29 15 -31 24 -15 55
6 12 7 24 2 29 -5 5 -16 -10 -26 -37z"/>
<path d="M1026 1095 c-32 -41 -32 -45 0 -68 30 -23 44 -15 21 11 -21 23 -22
39 -2 22 20 -17 32 -5 15 15 -19 22 -4 31 19 11 10 -10 22 -13 25 -8 3 5 -8
18 -23 30 l-29 21 -26 -34z"/>
<path d="M1125 1041 c4 -13 -3 -25 -22 -39 -15 -11 -25 -23 -21 -27 4 -4 20 2
37 14 27 20 31 20 39 5 5 -9 12 -12 15 -7 7 10 -33 73 -46 73 -5 0 -6 -9 -2
-19z"/>
<path d="M1207 934 c-3 -3 -3 -13 0 -21 4 -9 -5 -24 -23 -38 -16 -13 -26 -26
-23 -29 3 -4 18 3 33 15 22 17 29 19 42 9 26 -22 27 -3 2 34 -14 20 -27 33
-31 30z"/>
<path d="M1223 821 c-30 -28 -35 -54 -6 -29 22 18 51 -15 33 -37 -7 -8 -10
-18 -7 -21 6 -7 77 47 77 59 0 11 -18 9 -25 -4 -5 -7 -14 -4 -26 7 -18 16 -18
18 -3 36 28 31 -6 22 -43 -11z"/>
<path d="M1739 773 c-13 -9 -25 -17 -27 -19 -7 -4 43 -74 53 -74 19 0 56 31
49 41 -4 6 -14 3 -25 -7 -21 -19 -40 -11 -21 8 19 19 14 30 -8 18 -27 -14 -26
4 1 23 29 21 8 30 -22 10z"/>
<path d="M1311 734 c-12 -19 -21 -37 -21 -39 0 -11 59 -34 65 -26 3 5 -4 12
-15 16 -11 3 -20 11 -20 16 0 6 9 7 20 4 20 -6 28 9 10 20 -21 13 -9 25 13 13
12 -7 26 -11 30 -10 5 1 6 -5 3 -15 -19 -65 -19 -73 3 -73 12 0 21 5 21 11 0
6 9 1 19 -12 l19 -24 11 27 c15 40 31 44 31 9 0 -18 5 -31 13 -31 6 0 22 -3
35 -6 13 -4 22 -2 22 5 0 6 -9 11 -19 11 -29 0 -34 17 -8 25 l22 8 -22 4 c-34
6 -28 23 8 23 19 0 28 4 23 11 -3 6 -24 9 -45 7 -22 -2 -39 0 -39 4 0 4 -19
12 -42 18 -24 6 -56 18 -71 26 -40 20 -42 19 -66 -22z"/>
<path d="M1633 730 c-27 -11 -28 -13 -7 -67 18 -47 30 -51 76 -27 26 14 29 19
24 46 -11 56 -39 70 -93 48z"/>
<path d="M1245 406 c-12 -8 -26 -41 -35 -80 -14 -57 -14 -66 -2 -71 8 -3 17
-4 19 -1 5 5 42 160 39 163 -1 2 -11 -3 -21 -11z"/>
<path d="M1682 402 c-14 -14 -19 -33 -18 -78 1 -54 3 -60 28 -72 35 -16 75 -6
94 24 16 23 11 64 -7 64 -5 0 -9 11 -9 23 0 27 -28 57 -53 57 -9 0 -25 -8 -35
-18z m46 -33 c-2 -6 -8 -10 -13 -10 -5 0 -11 4 -13 10 -2 6 4 11 13 11 9 0 15
-5 13 -11z m28 -60 c3 -6 0 -15 -7 -20 -22 -13 -49 -11 -49 5 0 23 43 35 56
15z"/>
<path d="M1111 387 c-17 -21 -3 -49 23 -45 15 2 21 10 21 28 0 28 -26 38 -44
17z"/>
<path d="M1330 385 c-7 -9 -14 -23 -14 -33 -1 -9 -8 -30 -16 -46 -13 -27 -13
-30 13 -52 33 -28 63 -30 95 -8 21 15 23 21 16 72 -3 32 -11 63 -16 70 -14 17
-63 15 -78 -3z m55 -24 c7 -12 -12 -24 -25 -16 -11 7 -4 25 10 25 5 0 11 -4
15 -9z m5 -77 c0 -11 -8 -14 -27 -12 -39 4 -42 28 -4 28 21 0 31 -5 31 -16z"/>
<path d="M1510 382 c-27 -22 -42 -92 -26 -123 27 -54 118 -42 124 16 4 35 -18
55 -61 55 -39 0 -30 25 9 26 45 1 61 14 39 31 -26 18 -59 16 -85 -5z m59 -91
c19 -12 5 -31 -23 -31 -29 0 -39 10 -25 27 13 15 28 16 48 4z"/>
<path d="M1844 385 c-9 -23 3 -45 25 -45 23 0 35 28 20 46 -15 18 -38 18 -45
-1z"/>
<path d="M2117 2843 c-13 -12 -7 -41 10 -47 21 -8 48 17 40 38 -6 16 -38 22
-50 9z"/>
<path d="M774 2805 c-8 -21 2 -45 19 -45 8 0 20 7 27 15 10 12 10 18 0 30 -7
8 -19 15 -27 15 -7 0 -16 -7 -19 -15z"/>
<path d="M2180 2805 c-11 -13 -11 -19 3 -32 21 -21 49 -9 45 19 -4 28 -30 35
-48 13z"/>
<path d="M707 2767 c-3 -9 0 -22 6 -32 17 -22 49 -9 45 19 -4 25 -43 34 -51
13z"/>
<path d="M2247 2773 c-12 -12 -7 -41 8 -47 19 -7 46 20 39 39 -6 15 -35 20
-47 8z"/>
<path d="M644 2725 c-4 -9 0 -23 8 -31 20 -20 50 -7 46 20 -4 26 -45 35 -54
11z"/>
<path d="M2307 2733 c-13 -12 -7 -41 10 -47 21 -8 48 17 40 38 -6 16 -38 22
-50 9z"/>
<path d="M586 2684 c-9 -22 17 -49 39 -40 10 3 15 15 13 28 -4 29 -42 37 -52
12z"/>
<path d="M2364 2685 c-8 -21 2 -45 19 -45 8 0 20 7 27 15 10 12 10 18 0 30 -7
8 -19 15 -27 15 -7 0 -16 -7 -19 -15z"/>
<path d="M543 2653 c-7 -2 -13 -16 -13 -29 0 -19 5 -24 24 -24 30 0 40 24 20
45 -9 8 -16 15 -17 14 -1 0 -8 -3 -14 -6z"/>
<path d="M2426 2644 c-20 -20 -9 -44 20 -44 19 0 24 5 24 24 0 29 -24 40 -44
20z"/>
<path d="M480 2595 c-17 -20 -5 -45 20 -45 11 0 23 7 26 15 6 15 -11 45 -26
45 -4 0 -13 -7 -20 -15z"/>
<path d="M2480 2595 c-17 -20 -5 -45 20 -45 11 0 23 7 26 15 6 15 -11 45 -26
45 -4 0 -13 -7 -20 -15z"/>
<path d="M430 2545 c-18 -21 -4 -47 22 -43 29 4 35 34 10 47 -15 8 -23 7 -32
-4z"/>
<path d="M2530 2545 c-17 -20 -5 -45 20 -45 11 0 23 7 26 15 6 15 -11 45 -26
45 -4 0 -13 -7 -20 -15z"/>
<path d="M377 2493 c-13 -12 -7 -41 10 -47 21 -9 46 16 37 37 -6 17 -35 23
-47 10z"/>
<path d="M2574 2485 c-4 -9 0 -23 8 -31 20 -20 50 -7 46 20 -4 26 -45 35 -54
11z"/>
<path d="M330 2435 c-17 -20 -5 -45 20 -45 11 0 23 7 26 15 6 15 -11 45 -26
45 -4 0 -13 -7 -20 -15z"/>
<path d="M2630 2435 c-17 -20 -5 -45 20 -45 11 0 23 7 26 15 6 15 -11 45 -26
45 -4 0 -13 -7 -20 -15z"/>
<path d="M292 2381 c-20 -12 -10 -46 14 -49 25 -4 40 24 23 44 -13 16 -19 17
-37 5z"/>
<path d="M2671 2376 c-17 -20 -2 -48 23 -44 24 3 34 37 14 49 -18 12 -24 11
-37 -5z"/>
<path d="M252 2321 c-19 -12 -11 -45 12 -49 24 -5 37 17 25 40 -11 20 -18 22
-37 9z"/>
<path d="M2711 2316 c-17 -20 -2 -48 23 -44 24 3 34 37 14 49 -18 12 -24 11
-37 -5z"/>
<path d="M203 2244 c-3 -8 1 -22 9 -30 12 -12 17 -12 33 -1 23 17 14 47 -15
47 -11 0 -23 -7 -27 -16z"/>
<path d="M2744 2245 c-4 -9 -2 -21 4 -27 16 -16 47 -5 47 17 0 26 -42 34 -51
10z"/>
<path d="M170 2185 c-11 -13 -11 -19 3 -32 21 -21 49 -9 45 19 -4 28 -30 35
-48 13z"/>
<path d="M2784 2185 c-8 -21 2 -45 19 -45 8 0 20 7 27 15 10 12 10 18 0 30 -7
8 -19 15 -27 15 -7 0 -16 -7 -19 -15z"/>
<path d="M133 2114 c-4 -11 1 -22 12 -31 16 -11 21 -11 33 1 8 8 12 22 9 30
-8 21 -46 21 -54 0z"/>
<path d="M2813 2114 c-3 -8 1 -22 9 -30 12 -12 17 -12 33 -1 23 17 14 47 -15
47 -11 0 -23 -7 -27 -16z"/>
<path d="M110 2055 c-18 -21 -5 -47 22 -43 26 3 37 36 16 49 -18 12 -24 11
-38 -6z"/>
<path d="M2852 2061 c-21 -13 -10 -46 16 -49 27 -4 40 22 22 43 -14 17 -20 18
-38 6z"/>
<path d="M84 1985 c-9 -23 3 -45 25 -45 23 0 35 28 20 46 -15 18 -38 18 -45
-1z"/>
<path d="M2871 1987 c-17 -21 -3 -49 23 -45 15 2 21 10 21 28 0 28 -26 38 -44
17z"/>
<path d="M67 1923 c-13 -12 -7 -44 8 -49 24 -10 47 14 34 37 -10 19 -30 25
-42 12z"/>
<path d="M2891 1917 c-17 -21 -3 -49 23 -45 15 2 21 10 21 28 0 28 -26 38 -44
17z"/>
<path d="M52 1851 c-20 -12 -10 -46 14 -49 25 -4 40 24 23 44 -13 16 -19 17
-37 5z"/>
<path d="M2910 1845 c-18 -21 -5 -47 22 -43 26 3 37 36 16 49 -18 12 -24 11
-38 -6z"/>
<path d="M24 1765 c-8 -21 4 -35 32 -35 19 0 24 5 24 25 0 20 -5 25 -25 25
-14 0 -28 -7 -31 -15z"/>
<path d="M2920 1755 c0 -20 5 -25 24 -25 25 0 36 15 29 38 -3 6 -16 12 -29 12
-19 0 -24 -5 -24 -25z"/>
<path d="M14 1695 c-4 -9 0 -23 8 -31 20 -20 50 -7 46 20 -4 26 -45 35 -54 11z"/>
<path d="M2937 1703 c-13 -12 -7 -41 10 -47 21 -8 48 17 40 38 -6 16 -38 22
-50 9z"/>
<path d="M14 1626 c-9 -24 4 -48 23 -44 12 2 18 12 18 28 0 29 -32 41 -41 16z"/>
<path d="M2944 1626 c-9 -24 4 -48 23 -44 12 2 18 12 18 28 0 29 -32 41 -41
16z"/>
<path d="M10 1555 c-17 -20 -5 -45 20 -45 11 0 23 7 26 15 6 15 -11 45 -26 45
-4 0 -13 -7 -20 -15z"/>
<path d="M2950 1555 c-17 -20 -5 -45 20 -45 11 0 23 7 26 15 6 15 -11 45 -26
45 -4 0 -13 -7 -20 -15z"/>
<path d="M3 1474 c-3 -8 2 -23 11 -32 15 -15 17 -15 32 0 21 21 11 48 -16 48
-11 0 -23 -7 -27 -16z"/>
<path d="M2943 1474 c-3 -8 2 -23 11 -32 15 -15 17 -15 32 0 21 21 11 48 -16
48 -11 0 -23 -7 -27 -16z"/>
<path d="M14 1406 c-9 -24 4 -48 23 -44 12 2 18 12 18 28 0 29 -32 41 -41 16z"/>
<path d="M2944 1406 c-9 -24 4 -48 23 -44 12 2 18 12 18 28 0 29 -32 41 -41
16z"/>
<path d="M20 1335 c-18 -21 -5 -47 22 -43 26 3 37 36 16 49 -18 12 -24 11 -38
-6z"/>
<path d="M2942 1341 c-21 -13 -10 -46 16 -49 27 -4 40 22 22 43 -14 17 -20 18
-38 6z"/>
<path d="M24 1255 c-8 -21 4 -35 32 -35 19 0 24 5 24 25 0 20 -5 25 -25 25
-14 0 -28 -7 -31 -15z"/>
<path d="M2920 1245 c0 -20 5 -25 24 -25 25 0 36 15 29 38 -3 6 -16 12 -29 12
-19 0 -24 -5 -24 -25z"/>
<path d="M47 1193 c-13 -12 -7 -41 10 -47 21 -9 46 16 37 37 -6 17 -35 23 -47
10z"/>
<path d="M2904 1185 c-4 -9 0 -23 8 -31 20 -20 50 -7 46 20 -4 26 -45 35 -54
11z"/>
<path d="M67 1123 c-13 -12 -7 -44 9 -50 23 -9 48 25 33 44 -12 14 -32 17 -42
6z"/>
<path d="M2886 1114 c-9 -22 17 -49 39 -40 10 3 15 15 13 28 -4 29 -42 37 -52
12z"/>
<path d="M84 1045 c-8 -21 2 -45 19 -45 21 0 38 25 31 44 -8 20 -43 21 -50 1z"/>
<path d="M2866 1044 c-9 -22 17 -49 39 -40 10 3 15 15 13 28 -4 29 -42 37 -52
12z"/>
<path d="M104 975 c-4 -9 0 -23 8 -31 20 -20 50 -7 46 20 -4 26 -45 35 -54 11z"/>
<path d="M2847 983 c-13 -12 -7 -41 10 -47 21 -8 48 17 40 38 -6 16 -38 22
-50 9z"/>
<path d="M145 917 c-23 -17 -14 -47 15 -47 26 0 37 27 18 46 -12 12 -17 12
-33 1z"/>
<path d="M2820 915 c-18 -21 -4 -47 22 -43 29 4 35 34 10 47 -15 8 -23 7 -32
-4z"/>
<path d="M170 845 c-11 -13 -11 -19 3 -32 21 -21 49 -9 45 19 -4 28 -30 35
-48 13z"/>
<path d="M2784 845 c-8 -21 2 -45 19 -45 8 0 20 7 27 15 10 12 10 18 0 30 -7
8 -19 15 -27 15 -7 0 -16 -7 -19 -15z"/>
<path d="M210 785 c-18 -21 -4 -47 22 -43 29 4 35 34 10 47 -15 8 -23 7 -32
-4z"/>
<path d="M2744 775 c-4 -9 -2 -21 4 -27 16 -16 47 -5 47 17 0 26 -42 34 -51
10z"/>
<path d="M247 723 c-13 -12 -7 -41 10 -47 20 -8 44 19 36 40 -5 14 -35 19 -46
7z"/>
<path d="M2706 714 c-4 -10 -1 -24 7 -31 19 -19 49 -5 45 21 -4 27 -43 34 -52
10z"/>
<path d="M287 663 c-13 -12 -7 -41 10 -47 21 -9 46 16 37 37 -6 17 -35 23 -47
10z"/>
<path d="M2666 654 c-4 -10 -1 -24 7 -31 19 -19 49 -5 45 21 -4 27 -43 34 -52
10z"/>
<path d="M323 594 c-3 -8 2 -23 11 -32 15 -15 17 -15 32 0 21 21 11 48 -16 48
-11 0 -23 -7 -27 -16z"/>
<path d="M2623 594 c-3 -8 2 -23 11 -32 15 -15 17 -15 32 0 21 21 11 48 -16
48 -11 0 -23 -7 -27 -16z"/>
<path d="M382 551 c-20 -12 -10 -46 14 -49 25 -4 40 24 23 44 -13 16 -19 17
-37 5z"/>
<path d="M2580 545 c-18 -21 -5 -47 22 -43 26 3 37 36 16 49 -18 12 -24 11
-38 -6z"/>
<path d="M423 484 c-3 -8 1 -22 9 -30 12 -12 17 -12 33 -1 23 17 14 47 -15 47
-11 0 -23 -7 -27 -16z"/>
<path d="M2523 484 c-3 -8 2 -23 11 -32 15 -15 17 -15 32 0 21 21 11 48 -16
48 -11 0 -23 -7 -27 -16z"/>
<path d="M473 434 c-3 -8 2 -23 11 -32 15 -15 17 -15 32 0 21 21 11 48 -16 48
-11 0 -23 -7 -27 -16z"/>
<path d="M2473 434 c-3 -8 2 -23 11 -32 15 -15 17 -15 32 0 21 21 11 48 -16
48 -11 0 -23 -7 -27 -16z"/>
<path d="M530 376 c0 -29 24 -40 44 -20 20 20 9 44 -20 44 -19 0 -24 -5 -24
-24z"/>
<path d="M2416 385 c-7 -19 20 -46 39 -39 8 4 15 17 15 30 0 19 -5 24 -24 24
-13 0 -26 -7 -30 -15z"/>
<path d="M591 347 c-17 -21 -3 -49 23 -45 15 2 21 10 21 28 0 28 -26 38 -44
17z"/>
<path d="M2364 345 c-8 -21 2 -45 19 -45 8 0 20 7 27 15 10 12 10 18 0 30 -7
8 -19 15 -27 15 -7 0 -16 -7 -19 -15z"/>
<path d="M650 305 c-18 -21 -5 -47 22 -43 26 3 37 36 16 49 -18 12 -24 11 -38
-6z"/>
<path d="M2312 311 c-21 -13 -10 -46 16 -49 27 -4 40 22 22 43 -14 17 -20 18
-38 6z"/>
<path d="M711 262 c-12 -23 1 -45 25 -40 23 4 31 37 12 49 -19 13 -26 11 -37
-9z"/>
<path d="M2251 270 c-7 -4 -11 -16 -9 -26 4 -22 37 -31 48 -13 16 25 -14 55
-39 39z"/>
<path d="M774 225 c-8 -21 2 -45 19 -45 8 0 20 7 27 15 10 12 10 18 0 30 -7 8
-19 15 -27 15 -7 0 -16 -7 -19 -15z"/>
<path d="M2180 225 c-11 -13 -11 -19 3 -32 21 -21 49 -9 45 19 -4 28 -30 35
-48 13z"/>
<path d="M840 195 c-18 -21 -5 -47 22 -43 26 3 37 36 16 49 -18 12 -24 11 -38
-6z"/>
<path d="M2122 201 c-21 -13 -10 -46 16 -49 27 -4 40 22 22 43 -14 17 -20 18
-38 6z"/>
<path d="M910 165 c-17 -20 -5 -45 20 -45 11 0 23 7 26 15 6 15 -11 45 -26 45
-4 0 -13 -7 -20 -15z"/>
<path d="M2050 165 c-17 -20 -5 -45 20 -45 11 0 23 7 26 15 6 15 -11 45 -26
45 -4 0 -13 -7 -20 -15z"/>
<path d="M974 135 c-8 -21 2 -45 19 -45 8 0 20 7 27 15 10 12 10 18 0 30 -7 8
-19 15 -27 15 -7 0 -16 -7 -19 -15z"/>
<path d="M1980 135 c-11 -13 -11 -19 3 -32 21 -21 49 -9 45 19 -4 28 -30 35
-48 13z"/>
<path d="M1051 121 c-18 -12 -9 -45 13 -49 17 -4 35 12 36 30 0 13 -36 27 -49
19z"/>
<path d="M1915 117 c-10 -8 -14 -19 -9 -30 9 -25 48 -18 52 9 4 26 -20 37 -43
21z"/>
<path d="M1122 101 c-20 -12 -10 -46 14 -49 25 -4 40 24 23 44 -13 16 -19 17
-37 5z"/>
<path d="M1841 96 c-17 -20 -2 -48 23 -44 24 3 34 37 14 49 -18 12 -24 11 -37
-5z"/>
<path d="M1184 75 c-9 -23 3 -45 25 -45 21 0 33 22 25 45 -8 19 -43 19 -50 0z"/>
<path d="M1767 76 c-10 -26 4 -47 27 -44 15 2 21 10 21 28 0 29 -38 41 -48 16z"/>
<path d="M1260 65 c-17 -20 -5 -45 20 -45 11 0 23 7 26 15 6 15 -11 45 -26 45
-4 0 -13 -7 -20 -15z"/>
<path d="M1702 71 c-21 -13 -10 -46 16 -49 27 -4 40 22 22 43 -14 17 -20 18
-38 6z"/>
<path d="M1331 57 c-17 -21 -3 -49 23 -45 15 2 21 10 21 28 0 28 -26 38 -44
17z"/>
<path d="M1624 55 c-9 -23 3 -45 25 -45 23 0 32 18 19 43 -11 21 -37 22 -44 2z"/>
<path d="M1407 53 c-13 -12 -7 -41 10 -47 21 -9 46 16 37 37 -6 17 -35 23 -47
10z"/>
<path d="M1477 54 c-12 -13 -8 -42 8 -48 25 -9 46 5 43 28 -3 21 -37 34 -51
20z"/>
<path d="M1546 44 c-4 -10 -1 -24 7 -31 19 -19 49 -5 45 21 -4 27 -43 34 -52
10z"/>
</g>
</svg>
