<?xml version="1.0" standalone="no"?>
<!DOCTYPE svg PUBLIC "-//W3C//DTD SVG 20010904//EN"
 "http://www.w3.org/TR/2001/REC-SVG-20010904/DTD/svg10.dtd">
<svg version="1.0" xmlns="http://www.w3.org/2000/svg"
 width="1440.000000pt" height="510.000000pt" viewBox="0 0 1440.000000 510.000000"
 preserveAspectRatio="xMidYMid meet">

<g transform="translate(0.000000,510.000000) scale(0.100000,-0.100000)"
fill="#000000" stroke="none">
<path d="M7154 4120 c-191 -50 -302 -163 -351 -357 -26 -101 -26 -599 0 -692
51 -186 171 -295 368 -337 89 -19 278 -14 379 11 68 17 187 71 230 104 l25 20
0 313 0 313 -240 0 -240 0 0 -95 0 -95 120 -5 120 -5 3 -151 3 -152 -45 -21
c-84 -41 -258 -45 -346 -9 -42 18 -104 84 -125 134 -43 103 -46 481 -6 632 15
55 62 120 109 152 53 35 153 55 230 45 65 -8 152 -38 164 -57 4 -7 8 -43 8
-80 l0 -68 110 0 110 0 0 138 c0 160 1 158 -107 211 -140 70 -365 92 -519 51z"/>
<path d="M11984 4107 c-2 -7 -3 -56 -2 -108 l3 -94 110 0 110 0 0 105 0 105
-108 3 c-83 2 -109 0 -113 -11z"/>
<path d="M8280 3725 c-185 -52 -276 -185 -295 -431 -17 -217 47 -408 166 -494
130 -94 371 -106 534 -25 59 29 145 101 145 121 0 13 -32 45 -107 108 l-32 27
-34 -31 c-73 -64 -176 -90 -273 -70 -47 10 -67 21 -100 54 -42 42 -81 133 -70
161 5 13 53 15 316 15 281 0 311 2 317 17 11 28 -14 246 -35 306 -39 108 -123
193 -232 233 -64 23 -230 28 -300 9z m205 -186 c53 -15 110 -73 125 -128 21
-79 29 -76 -193 -79 -225 -3 -218 -6 -193 80 31 109 138 161 261 127z"/>
<path d="M9300 3724 c-145 -39 -233 -133 -277 -294 -23 -89 -24 -310 0 -397
58 -216 220 -327 455 -310 159 11 271 80 334 207 44 88 58 162 58 310 -1 275
-98 431 -304 486 -66 18 -196 17 -266 -2z m238 -208 c74 -38 107 -141 100
-316 -7 -176 -49 -249 -159 -271 -93 -20 -170 14 -210 92 -59 117 -42 394 30
463 58 55 166 70 239 32z"/>
<path d="M11037 3726 c-102 -28 -181 -110 -218 -224 -27 -83 -38 -313 -20
-419 24 -135 88 -231 189 -280 44 -21 74 -28 142 -31 111 -5 184 14 236 63 20
19 39 35 42 35 11 0 -8 -161 -23 -197 -33 -78 -92 -112 -195 -113 -72 0 -140
26 -198 75 l-34 28 -71 -71 c-65 -65 -70 -73 -60 -95 14 -30 89 -80 160 -107
169 -63 391 -39 501 56 49 41 90 99 118 164 17 41 19 80 24 475 l5 430 58 3
57 3 0 99 0 100 -170 0 -170 0 0 -47 0 -47 -37 36 c-21 21 -56 45 -78 54 -53
22 -196 28 -258 10z m226 -197 c58 -16 105 -63 121 -123 50 -175 14 -360 -80
-413 -46 -27 -130 -31 -172 -9 -79 41 -112 119 -112 265 0 161 38 245 125 276
49 17 69 18 118 4z"/>
<path d="M12685 3726 c-86 -17 -165 -48 -176 -68 -5 -10 -8 -66 -7 -125 l3
-108 108 -3 107 -3 0 55 c0 46 4 57 21 67 29 15 186 8 223 -11 44 -22 69 -71
70 -138 l1 -57 -175 -6 c-197 -7 -254 -21 -327 -84 -77 -65 -112 -205 -79
-316 24 -84 64 -132 143 -171 64 -31 73 -33 178 -33 100 0 115 2 167 28 32 16
66 39 77 53 l20 25 3 -43 3 -43 160 0 160 0 3 97 3 97 -58 3 -58 3 -5 290 c-5
276 -6 292 -28 340 -41 89 -92 125 -211 151 -79 16 -243 17 -326 0z m353 -606
c10 -98 -32 -177 -106 -201 -60 -20 -173 -16 -213 7 -67 39 -80 120 -29 178
40 45 80 55 225 53 l120 -2 3 -35z"/>
<path d="M10472 3713 c-23 -8 -62 -35 -87 -59 l-44 -45 -3 53 -3 53 -170 0
-170 0 0 -95 0 -95 55 -5 55 -5 0 -285 0 -285 -55 -5 -55 -5 0 -95 0 -95 235
0 235 0 0 95 0 95 -60 5 -60 5 -3 193 c-1 109 2 210 8 231 15 58 51 104 100
129 41 22 53 23 148 17 l102 -6 0 105 c0 99 -1 104 -22 110 -42 11 -162 5
-206 -11z"/>
<path d="M11864 3707 c-3 -8 -4 -52 -2 -98 l3 -84 55 -5 55 -5 0 -285 0 -285
-55 -5 -55 -5 0 -95 0 -95 230 0 230 0 0 95 0 95 -55 5 -55 5 -5 385 -5 385
-168 3 c-134 2 -168 0 -173 -11z"/>
<path d="M7032 2173 l3 -178 105 0 105 0 3 73 3 73 112 -3 112 -3 3 -469 c1
-338 -1 -473 -9 -482 -7 -9 -33 -14 -70 -14 l-59 0 0 -95 0 -95 255 0 255 0 0
95 0 94 -62 3 -63 3 -3 483 -2 483 112 -3 113 -3 3 -72 3 -73 104 0 105 0 0
180 0 180 -565 0 -565 0 2 -177z"/>
<path d="M9990 2256 l0 -95 53 -3 52 -3 0 -490 0 -490 -52 -3 -53 -3 0 -95 0
-94 230 0 230 0 0 95 0 95 -49 0 c-30 0 -53 5 -61 15 -8 10 -11 72 -8 232 3
211 4 219 28 262 40 70 69 86 155 86 89 0 118 -17 155 -91 24 -47 25 -58 28
-262 3 -156 1 -217 -8 -227 -8 -10 -31 -15 -61 -15 l-49 0 0 -95 0 -95 230 0
230 0 0 95 0 95 -49 0 c-27 0 -53 6 -59 13 -7 8 -12 111 -14 282 l-3 270 -28
57 c-34 70 -110 140 -174 162 -60 21 -195 21 -255 0 -25 -8 -64 -31 -87 -50
l-41 -36 0 241 0 241 -170 0 -170 0 0 -94z"/>
<path d="M8342 1950 c-197 -71 -282 -236 -269 -525 13 -284 127 -431 360 -466
173 -26 359 31 462 141 l30 32 -70 64 c-38 35 -73 64 -77 64 -4 0 -22 -13 -40
-29 -56 -48 -98 -64 -181 -69 -128 -8 -201 35 -242 141 -33 87 -52 82 304 85
l314 2 -6 128 c-6 148 -21 207 -77 288 -44 66 -112 117 -192 145 -75 26 -243
25 -316 -1z m245 -185 c21 -9 46 -23 56 -33 43 -38 76 -142 52 -162 -8 -7 -82
-9 -201 -8 l-189 3 -3 25 c-5 33 14 92 40 125 46 59 165 83 245 50z"/>
<path d="M9336 1950 c-95 -34 -167 -91 -213 -170 -77 -129 -84 -463 -13 -612
76 -162 250 -237 486 -209 97 11 200 40 242 67 22 14 22 19 20 142 l-3 127
-102 3 -103 3 0 -55 c0 -74 -17 -86 -125 -86 -99 0 -153 22 -189 77 -55 84
-62 326 -11 429 39 80 76 99 196 99 118 0 129 -7 129 -81 l0 -54 105 0 105 0
0 130 0 129 -32 17 c-87 45 -141 56 -288 61 -128 3 -152 1 -204 -17z"/>
<path d="M11227 1150 c-49 -38 -44 -122 7 -155 43 -28 96 -22 128 14 37 41 37
88 2 130 -21 26 -33 31 -69 31 -27 0 -51 -7 -68 -20z m112 -16 c24 -20 31 -34
31 -60 0 -43 -37 -84 -75 -84 -35 0 -85 50 -85 85 0 32 49 85 78 85 11 0 34
-12 51 -26z"/>
<path d="M11250 1076 c0 -31 5 -56 10 -56 6 0 10 9 10 20 0 12 7 20 16 20 9 0
18 -9 21 -20 10 -38 22 -20 20 33 l-2 52 -37 3 -38 3 0 -55z m55 23 c0 -7 -8
-15 -17 -17 -18 -3 -25 18 -11 32 10 10 28 1 28 -15z"/>
</g>
</svg>
